<?xml version="1.0" encoding="UTF-8"?>
<svg xmlns="http://www.w3.org/2000/svg" xmlns:xlink="http://www.w3.org/1999/xlink" width="20px" height="20px" viewBox="0 0 20 20" version="1.1">
<g id="surface1">
<path style=" stroke:none;fill-rule:evenodd;fill:rgb(12.156863%,13.725491%,15.686275%);fill-opacity:1;" d="M 18.75 18.125 C 18.75 18.46875 18.46875 18.75 18.125 18.75 L 1.875 18.75 C 1.53125 18.75 1.25 18.46875 1.25 18.125 L 1.25 1.875 C 1.25 1.53125 1.53125 1.25 1.875 1.25 L 18.125 1.25 C 18.46875 1.25 18.75 1.53125 18.75 1.875 Z M 18.125 0 L 1.875 0 C 0.839844 0 0 0.839844 0 1.875 L 0 18.125 C 0 19.160156 0.839844 20 1.875 20 L 18.125 20 C 19.160156 20 20 19.160156 20 18.125 L 20 1.875 C 20 0.839844 19.160156 0 18.125 0 Z M 15.675781 2.554688 L 10 8.230469 L 4.324219 2.554688 L 2.554688 4.324219 L 8.234375 10 L 2.554688 15.675781 L 4.324219 17.445312 L 10 11.765625 L 15.675781 17.445312 L 17.445312 15.675781 L 11.765625 10 L 17.445312 4.324219 Z M 15.675781 2.554688 "/>
</g>
</svg>
