<?xml version="1.0" encoding="UTF-8"?>
<svg xmlns="http://www.w3.org/2000/svg" xmlns:xlink="http://www.w3.org/1999/xlink" width="20px" height="20px" viewBox="0 0 20 20" version="1.1">
<g id="surface1">
<path style=" stroke:none;fill-rule:evenodd;fill:rgb(12.156863%,13.725491%,15.686275%);fill-opacity:1;" d="M 18.75 18.125 C 18.75 18.46875 18.46875 18.75 18.125 18.75 L 13.75 18.75 L 13.75 15.625 L 12.5 15.625 L 12.5 18.75 L 7.5 18.75 L 7.5 15.625 L 6.25 15.625 L 6.25 18.75 L 1.875 18.75 C 1.53125 18.75 1.25 18.46875 1.25 18.125 L 1.25 1.875 C 1.25 1.53125 1.53125 1.25 1.875 1.25 L 6.25 1.25 L 6.25 4.375 L 7.5 4.375 L 7.5 1.25 L 12.5 1.25 L 12.5 4.375 L 13.75 4.375 L 13.75 1.25 L 18.125 1.25 C 18.46875 1.25 18.75 1.53125 18.75 1.875 Z M 18.125 0 L 1.875 0 C 0.839844 0 0 0.839844 0 1.875 L 0 18.125 C 0 19.160156 0.839844 20 1.875 20 L 18.125 20 C 19.160156 20 20 19.160156 20 18.125 L 20 1.875 C 20 0.839844 19.160156 0 18.125 0 Z M 14.945312 6.820312 L 13.179688 5.054688 L 10 8.234375 L 6.820312 5.054688 L 5.054688 6.820312 L 8.234375 10 L 5.054688 13.179688 L 6.820312 14.945312 L 10 11.765625 L 13.179688 14.945312 L 14.945312 13.179688 L 11.765625 10 Z M 14.945312 6.820312 "/>
</g>
</svg>
