<?xml version="1.0" encoding="UTF-8"?>
<svg xmlns="http://www.w3.org/2000/svg" xmlns:xlink="http://www.w3.org/1999/xlink" width="20px" height="20px" viewBox="0 0 20 20" version="1.1">
<g id="surface1">
<path style=" stroke:none;fill-rule:evenodd;fill:rgb(12.156863%,13.725491%,15.686275%);fill-opacity:1;" d="M 18.125 0 C 19.160156 0 20 0.839844 20 1.875 L 20 18.125 C 20 19.160156 19.160156 20 18.125 20 L 1.875 20 C 0.839844 20 0 19.160156 0 18.125 L 0 1.875 C 0 0.839844 0.839844 0 1.875 0 Z M 18.75 18.125 L 18.75 1.875 C 18.75 1.53125 18.46875 1.25 18.125 1.25 L 7.5 1.25 L 7.5 18.75 L 18.125 18.75 C 18.46875 18.75 18.75 18.46875 18.75 18.125 Z M 1.875 18.75 L 6.25 18.75 L 6.25 13.75 L 1.25 13.75 L 1.25 18.125 C 1.25 18.46875 1.53125 18.75 1.875 18.75 Z M 1.25 12.5 L 6.25 12.5 L 6.25 7.5 L 1.25 7.5 Z M 1.875 1.25 C 1.53125 1.25 1.25 1.53125 1.25 1.875 L 1.25 6.25 L 6.25 6.25 L 6.25 1.25 Z M 11.910156 5.3125 L 14.410156 5.3125 L 14.410156 8.75 L 17.847656 8.75 L 17.847656 11.25 L 14.410156 11.25 L 14.410156 14.6875 L 11.910156 14.6875 L 11.910156 11.25 L 8.472656 11.25 L 8.472656 8.75 L 11.910156 8.75 Z M 11.910156 5.3125 "/>
</g>
</svg>
